HIERARCHY
ROOT Hips
{
  OFFSET 40.9192 92.6879 18.85
  CHANNELS 6 Xposition Yposition Zposition Zrotation Xrotation Yrotation
  JOINT LeftUpLeg
  {
    OFFSET 8.64259 1.95398 -2.38835
    CHANNELS 3 Zrotation Xrotation Yrotation
    JOINT LeftLeg
    {
      OFFSET 43.7702 0 0
      CHANNELS 3 Zrotation Xrotation Yrotation
      JOINT LeftFoot
      {
        OFFSET 40.6238 0 0
        CHANNELS 3 Zrotation Xrotation Yrotation
        JOINT LeftToeBase
        {
          OFFSET 12.7242 0 0
          CHANNELS 3 Zrotation Xrotation Yrotation
          End Site
          {
            OFFSET 0 0 0
          }
        }
      }
    }
  }
  JOINT RightUpLeg
  {
    OFFSET -8.2249 1.95398 -2.59336
    CHANNELS 3 Zrotation Xrotation Yrotation
    JOINT RightLeg
    {
      OFFSET 43.5653 0 0
      CHANNELS 3 Zrotation Xrotation Yrotation
      JOINT RightFoot
      {
        OFFSET 40.6238 0 0
        CHANNELS 3 Zrotation Xrotation Yrotation
        JOINT RightToeBase
        {
          OFFSET 12.7242 0 0
          CHANNELS 3 Zrotation Xrotation Yrotation
          End Site
          {
            OFFSET 0 0 0
          }
        }
      }
    }
  }
  JOINT Spine
  {
    OFFSET 0.165834 0.87714 6.61349
    CHANNELS 3 Zrotation Xrotation Yrotation
    JOINT Spine1
    {
      OFFSET 7.38963 1.71661e-005 0
      CHANNELS 3 Zrotation Xrotation Yrotation
      JOINT Spine2
      {
        OFFSET 11.9445 1.14441e-005 0
        CHANNELS 3 Zrotation Xrotation Yrotation
        JOINT Spine3
        {
          OFFSET 14.7254 4.19617e-005 0
          CHANNELS 3 Zrotation Xrotation Yrotation
          JOINT Spine4
          {
            OFFSET 10.9679 0 0
            CHANNELS 3 Zrotation Xrotation Yrotation
            JOINT RightShoulder
            {
              OFFSET 2.46616 -1.6653 3.69651
              CHANNELS 3 Zrotation Xrotation Yrotation
              JOINT RightArm
              {
                OFFSET 13.0012 0 0
                CHANNELS 3 Zrotation Xrotation Yrotation
                JOINT RightForeArm
                {
                  OFFSET 28.7848 1.52588e-005 0
                  CHANNELS 3 Zrotation Xrotation Yrotation
                  JOINT RightHand
                  {
                    OFFSET 26.5688 1.52588e-005 0
                    CHANNELS 3 Zrotation Xrotation Yrotation
                    End Site
                    {
                      OFFSET 0 0 0
                    }
                  }
                }
              }
            }
            JOINT LeftShoulder
            {
              OFFSET 2.38034 -1.29275 -3.7523
              CHANNELS 3 Zrotation Xrotation Yrotation
              JOINT LeftArm
              {
                OFFSET 16.3182 6.10351e-005 0
                CHANNELS 3 Zrotation Xrotation Yrotation
                JOINT LeftForeArm
                {
                  OFFSET 27.0901 0 0
                  CHANNELS 3 Zrotation Xrotation Yrotation
                  JOINT LeftHand
                  {
                    OFFSET 24.5451 1.52588e-005 0
                    CHANNELS 3 Zrotation Xrotation Yrotation
                    End Site
                    {
                      OFFSET 0 0 0
                    }
                  }
                }
              }
            }
            JOINT Neck
            {
              OFFSET 5.0226 -0.0266342 0
              CHANNELS 3 Zrotation Xrotation Yrotation
              JOINT Head
              {
                OFFSET 6.69363 2.86102e-005 0
                CHANNELS 3 Zrotation Xrotation Yrotation
                End Site
                {
                  OFFSET 0 0 0
                }
              }
            }
          }
        }
      }
    }
  }
}
MOTION
Frames:	6
Frame Time:	0.0416667
253.896 85.9029 -251.567 -98.7876 -37.3901 -88.9076 -167.482 14.0159 129.461 10.7265 40.1603 -93.5403 32.142 6.37445 45.1611 47.7814 13.5453 -8.28812 174.549 39.2031 99.5905 -89.9412 -5.99059 -6.4996 110.73 -13.9498 -4.98145 25.5666 -46.6647 150.207 1.81883 8.64262 -90.2625 9.60347 3.50778 -0.791033 -2.06307 3.46958 -0.944835 -24.6363 3.58314 0.301141 -4.62362 3.58315 0.301148 153.954 -68.702 -19.2851 -4.75524 -33.1355 12.5241 -72.7108 40.8644 -86.3712 -19.1792 12.575 -65.3845 -91.5806 -52.5321 76.9649 -27.1848 25.6594 23.8143 0.865457 2.94414 -58.3317 28.8119 1.51231 1.36928 2.63848 10.3176 -38.6728 -5.72173 15.3442 50.8439 
252.942 86.868 -250.956 -98.5003 -39.6022 -89.4189 -165.258 7.79287 131.04 34.7103 29.8791 -101.933 11.9559 -16.4383 44.31 59.3756 22.6907 -3.6167 174.966 35.9877 97.9912 -88.0086 -3.82007 -5.79283 112.492 -13.8027 -4.62928 23.8034 -49.1605 147.836 1.6388 8.90243 -90.2968 9.0817 3.13615 -0.8081 -2.58581 3.09755 -0.945478 -25.1514 3.23389 0.172785 -5.13871 3.23388 0.172783 138.109 -70.5342 -38.4823 -1.40322 -26.1207 7.25735 -70.9193 35.2342 -88.1548 -18.1104 11.2911 -63.0303 -96.161 -53.4633 70.6427 -27.9369 22.2871 26.9286 -0.707202 3.40022 -54.5349 33.8159 2.98955 4.87218 5.23784 4.97963 -30.5884 1.55895 12.0394 36.9409 
252.101 88.6004 -251.068 -95.6849 -42.934 -89.1339 -167.06 24.1545 99.2212 -21.7242 83.299 -55.7428 23.1694 -46.8643 35.1843 81.2436 42.6014 3.11742 175.26 32.5089 95.5848 -84.3746 0.940339 -4.00155 113.391 -13.8166 -4.08733 15.9189 -56.4292 137.673 1.32356 9.10074 -90.2858 8.68112 2.51406 -0.72893 -2.98767 2.47954 -0.838937 -25.5423 2.61683 0.0608589 -5.52971 2.61681 0.0608482 112.345 -65.1506 -68.7064 9.13959 -18.5016 4.36862 -70.1316 29.1016 -89.3454 -18.4677 10.1972 -58.0402 -96.5597 -51.834 69.5856 -32.1713 21.601 29.1122 -9.76626 -1.98986 -54.0741 47.9433 1.95073 0.868685 16.1944 -1.3071 -15.4443 -0.63504 3.3561 18.9942 
250.566 88.6514 -249.761 -87.3803 -45.6841 -84.2229 -169.699 33.6009 94.4795 -64.8136 69.6451 -10.1404 8.22922 -48.7059 14.6818 93.8829 47.5418 -4.86278 175.295 31.57 94.9614 -82.8931 7.78594 -3.16095 114.135 -13.9072 -3.9585 2.73161 -58.0733 117.746 1.06277 8.88808 -90.2583 9.10369 2.00451 -0.651428 -2.56593 1.97391 -0.739058 -25.1134 2.10759 -0.0186098 -5.10078 2.10756 -0.0186218 98.4607 -54.503 -87.4538 21.7724 -12.7282 2.01721 -51.8912 20.8811 -97.3682 -16.5594 6.288 -41.5073 -94.2795 -49.6103 72.259 -36.5008 20.6955 31.057 -6.78172 -1.36697 -58.0864 43.0353 2.83793 3.15361 18.7193 -1.32002 -7.19531 2.78649 1.3555 9.79984 
246.645 89.8812 -245.594 -76.0938 -45.0255 -77.3064 -166.416 47.7588 88.4877 -71.9216 34.6446 -3.33942 47.7548 -9.30287 17.5246 49.7134 19.9675 16.9201 175.686 28.6265 95.0899 -76.734 13.219 -4.61044 109.487 -12.6996 -4.57588 -8.46149 -52.1001 94.5659 1.03945 8.3656 -90.0915 10.1469 2.02966 -0.352772 -1.5225 2.01217 -0.441796 -24.0703 2.04178 0.273787 -4.05765 2.0418 0.273795 95.342 -42.9061 -93.6191 31.5609 -12.17 -2.7922 -32.0536 9.05702 -98.6418 -16.5919 0.065875 -5.2141 -91.3685 -47.1958 76.0026 -40.2425 19.7218 31.6239 -0.0342839 0.921902 -61.1421 32.8771 4.00704 8.47869 22.0456 -0.818909 0.206071 2.0481 -0.713798 2.283 
241.043 91.9683 -239.497 -71.3011 -41.1821 -76.8779 -161.794 51.2577 84.7422 -59.9957 18.0434 -5.28631 58.3934 -0.904602 -1.47219 44.5715 14.8755 18.2143 176.528 22.2121 93.4319 -68.8504 12.6377 -9.21677 95.469 -6.91669 -5.14271 -23.7071 -41.1738 60.9548 1.38439 7.92612 -89.5853 11.0149 2.94814 0.546061 -0.652774 2.96932 0.415671 -23.2096 2.64764 1.40741 -3.19691 2.64765 1.40742 95.0721 -37.6611 -94.9822 36.1269 -13.2613 -3.89344 -28.175 0.788602 -94.8869 -18.9829 -0.663404 -0.743106 -90.228 -44.9713 77.2286 -44.4573 19.4017 34.2513 -5.45545 -1.74605 -63.1651 41.4647 2.9769 3.68661 21.8197 -0.870779 1.86468 2.43891 -1.42634 -0.339888 
